<svg xmlns="http://www.w3.org/2000/svg" viewBox="0 0 64 64" role="img" aria-label="Smart Topic Rename icon">
  <defs>
    <linearGradient id="g" x1="0" y1="0" x2="1" y2="1">
      <stop offset="0" stop-color="#60A5FA"/>
      <stop offset="1" stop-color="#2563EB"/>
    </linearGradient>
  </defs>
  <rect x="10" y="12" width="44" height="30" rx="10" fill="url(#g)"/>
  <path d="M24 42 L18 52 L32 44" fill="url(#g)"/>

  <!-- tag -->
  <g transform="translate(41 14) rotate(18 10 10)">
    <path d="M4 6 h12 l4 4 v10 a3 3 0 0 1-3 3 H4 a3 3 0 0 1-3-3 V9 a3 3 0 0 1 3-3z" fill="#EFF6FF"/>
    <circle cx="7" cy="11" r="1.7" fill="#2563EB"/>
  </g>

  <!-- sparkles -->
  <path d="M16 18 l1.2 3.2 L20 22 l-2.8 0.8 L16 26 l-1.2-3.2 L12 22 l2.8-0.8z" fill="#FBBF24"/>
  <path d="M52 34 l1 2.6 L55 37.3 l-2 0.7 L52 40.6 l-1-2.6 L49 37.3 l2-0.7z" fill="#FBBF24"/>

  <!-- subtle outline -->
  <rect x="10" y="12" width="44" height="30" rx="10" fill="none" stroke="#1D4ED8" stroke-width="2" opacity="0.55"/>
</svg>
